<svg width="304" height="101" viewBox="0 0 304 101" fill="none" xmlns="http://www.w3.org/2000/svg">
<path d="M36.1899 24.55H49.8899V34.62H50.1699C51.9899 27.58 56.8299 23.34 63.5399 23.34C65.2499 23.34 66.8399 23.62 67.8899 23.89V36.27C66.7299 35.83 64.6399 35.5 62.3299 35.5C54.5699 35.5 49.8899 40.4 49.8899 49.04V82.89H36.1899V24.55Z" fill="#FAFCF5"/>
<path d="M241.04 15.1C240.9 15.05 240.72 14.71 240.75 14.68C240.91 14.51 241.14 14.25 241.32 14.27C242.95 14.42 244.58 14.62 246.21 14.78C246.45 14.8 246.7 14.67 246.94 14.6C246.87 14.38 246.83 14.15 246.72 13.95C245.23 11.11 243.73 8.26998 242.26 5.41998C242.19 5.27998 242.31 4.87998 242.42 4.84998C243.24 4.57998 244.08 3.98998 244.95 4.62998C247.25 6.32998 249.53 8.05998 251.81 9.78998C254.54 11.87 257.66 11.49 260.74 11.11C261.72 10.99 262.66 10.58 263.61 10.27C263.77 10.22 263.88 10.02 264.02 9.87998C263.88 9.78998 263.76 9.66998 263.61 9.60998C262.09 9.00998 260.56 8.41998 259.04 7.80998C258.92 7.75998 258.85 7.60998 258.75 7.50998C259.01 7.30998 259.25 6.96998 259.52 6.93998C263.86 6.53998 268.21 6.84998 272.54 7.12998C276.77 7.40998 280.54 5.68998 284.5 4.81998C287.34 4.19998 290.16 3.44998 293.03 2.99998C294.86 2.70998 296.96 1.77998 298.55 2.68998C299.97 3.49998 301.36 3.07998 302.64 3.59998C302.98 3.73998 303.37 4.33998 303.34 4.68998C303.26 5.79998 302.23 6.20998 301.42 6.60998C296.83 8.91998 291.81 9.93998 286.88 11.18C280.86 12.69 274.83 14.17 268.78 15.54C256.23 19.02 245.52 16.6 241.03 15.08L241.04 15.1Z" fill="#FAFCF5"/>
<path d="M171.32 20.24V24.42V33.78H171.6C174.08 27.4 180.08 23.21 187.78 23.21C195.93 23.21 201.81 27.5 203.96 34.99H204.29C207.1 27.73 214.03 23.21 222.45 23.21C233.95 23.21 241.49 31.03 241.49 42.69V69.05C241.49 76.62 235.35 82.75 227.79 82.75V46.09C227.79 38.88 224.05 34.75 217.33 34.75C210.61 34.75 206.21 39.65 206.21 46.69V69.42C206.21 76.78 200.25 82.74 192.89 82.74V45.37C192.89 38.82 188.93 34.75 182.54 34.75C176.15 34.75 171.31 39.92 171.31 47.02V69.04C171.31 76.61 165.17 82.74 157.61 82.74V33.92C157.61 26.35 163.75 20.22 171.31 20.22L171.32 20.24Z" fill="#FAFCF5"/>
<path d="M242.45 53.76V53.7C242.45 35.32 253.18 23.21 269.86 23.21C286.54 23.21 296.88 34.93 296.88 52.55V56.95H256.04C256.26 67.19 261.87 73.24 270.79 73.24C277.61 73.24 282.07 69.61 283.39 65.7L283.5 65.31H296.32L296.15 65.92C294.33 74.89 285.75 83.92 270.5 83.92C253 83.92 242.43 72.31 242.43 53.76H242.45ZM256.21 47.82H283.56C282.57 38.57 277.29 33.95 270.02 33.95C262.75 33.95 257.31 38.85 256.21 47.82Z" fill="#FAFCF5"/>
<path d="M22.18 35.11H33.02V24.55H22.18V3.46997C14.49 3.46997 8.26 9.69997 8.26 17.39V24.55H0V35.11H8.26L22.16 35.12C15.62 35.13 10.08 38.28 8.26 42.61V67.09C8.26 79.09 14.04 84.04 26.25 84.04C29.01 84.04 31.43 83.77 33.02 83.55V73.26C32.09 73.31 31.04 73.48 29.72 73.48C24.71 73.48 22.18 71.66 22.18 65.94V35.11Z" fill="#FAFCF5"/>
<path d="M69.1201 7.54C69.1201 3.36 72.4801 0 76.7701 0C81.0601 0 84.3701 3.36 84.3701 7.54C84.3701 11.72 81.0701 15.02 76.7701 15.02C72.4701 15.02 69.1201 11.61 69.1201 7.54ZM69.8901 23.39H83.5901V68.03C83.5901 75.6 77.4501 81.73 69.8901 81.73V23.39Z" fill="#FAFCF5"/>
<path d="M85.8799 23.39H99.5799V33.46H99.8599C103.22 26.47 109.6 22.18 117.97 22.18C132.78 22.18 142.13 33.74 142.13 52.56V52.61C142.13 71.32 132.77 82.88 118.13 82.88C109.82 82.88 103.16 78.7 99.8599 71.87H99.5799V87.28C99.5799 94.85 93.4399 100.98 85.8799 100.98V23.39ZM128.15 52.62V52.57C128.15 40.9 122.65 33.75 113.9 33.75C105.15 33.75 99.4799 41.13 99.4799 52.57V52.62C99.4799 64.01 105.42 71.33 113.9 71.33C122.38 71.33 128.15 64.12 128.15 52.62Z" fill="#FAFCF5"/>
</svg>
